<?xml version="1.0" encoding="UTF-8" standalone="no"?>
<!DOCTYPE svg PUBLIC "-//W3C//DTD SVG 1.1//EN"
 "http://www.w3.org/Graphics/SVG/1.1/DTD/svg11.dtd">
<!-- Generated by graphviz version 13.1.2 (20250808.2320)
 -->
<!-- Title: Aurora Filesystem Layout Pages: 1 -->
<svg width="389pt" height="1012pt"
 viewBox="0.00 0.00 389.00 1012.00" xmlns="http://www.w3.org/2000/svg" xmlns:xlink="http://www.w3.org/1999/xlink">
<g id="graph0" class="graph" transform="scale(1 1) rotate(0) translate(4 1008.25)">
<title>Aurora Filesystem Layout</title>
<polygon fill="white" stroke="none" points="-4,4 -4,-1008.25 385.25,-1008.25 385.25,4 -4,4"/>
<text xml:space="preserve" text-anchor="middle" x="190.62" y="-988.85" font-family="Helvetica,sans-Serif" font-size="12.00">Aurora Core — Filesystem Layout</text>
<g id="clust1" class="cluster">
<title>cluster_src</title>
<path fill="none" stroke="#cccccc" d="M20,-8C20,-8 361.25,-8 361.25,-8 367.25,-8 373.25,-14 373.25,-20 373.25,-20 373.25,-664 373.25,-664 373.25,-670 367.25,-676 361.25,-676 361.25,-676 20,-676 20,-676 14,-676 8,-670 8,-664 8,-664 8,-20 8,-20 8,-14 14,-8 20,-8"/>
<text xml:space="preserve" text-anchor="middle" x="190.62" y="-660.6" font-family="Helvetica,sans-Serif" font-size="12.00">src/</text>
</g>
<g id="clust2" class="cluster">
<title>cluster_bundles</title>
<path fill="none" stroke="#cccccc" d="M20,-684C20,-684 224.5,-684 224.5,-684 230.5,-684 236.5,-690 236.5,-696 236.5,-696 236.5,-962 236.5,-962 236.5,-968 230.5,-974 224.5,-974 224.5,-974 20,-974 20,-974 14,-974 8,-968 8,-962 8,-962 8,-696 8,-696 8,-690 14,-684 20,-684"/>
<text xml:space="preserve" text-anchor="middle" x="122.25" y="-958.6" font-family="Helvetica,sans-Serif" font-size="12.00">bundles/</text>
</g>
<!-- src -->
<g id="node1" class="node">
<title>src</title>
<polygon fill="#eef7ff" stroke="black" points="70,-403 67,-407 46,-407 43,-403 16,-403 16,-367 70,-367 70,-403"/>
<text xml:space="preserve" text-anchor="middle" x="43" y="-381.5" font-family="Helvetica,sans-Serif" font-size="10.00">src/</text>
</g>
<!-- domain -->
<g id="node2" class="node">
<title>domain</title>
<polygon fill="#f8f9fb" stroke="black" points="194.25,-187 191.25,-191 170.25,-191 167.25,-187 140.25,-187 140.25,-151 194.25,-151 194.25,-187"/>
<text xml:space="preserve" text-anchor="middle" x="167.25" y="-165.5" font-family="Helvetica,sans-Serif" font-size="10.00">Domain/</text>
</g>
<!-- src&#45;&gt;domain -->
<g id="edge1" class="edge">
<title>src&#45;&gt;domain</title>
<path fill="none" stroke="#555555" d="M54.42,-366.58C75.81,-328.8 124.76,-242.32 150.21,-197.34"/>
<polygon fill="#555555" stroke="#555555" points="153.23,-199.11 155.11,-188.69 147.14,-195.67 153.23,-199.11"/>
</g>
<!-- application -->
<g id="node3" class="node">
<title>application</title>
<polygon fill="#f8f9fb" stroke="black" points="200.75,-376 197.75,-380 176.75,-380 173.75,-376 133.75,-376 133.75,-340 200.75,-340 200.75,-376"/>
<text xml:space="preserve" text-anchor="middle" x="167.25" y="-354.5" font-family="Helvetica,sans-Serif" font-size="10.00">Application/</text>
</g>
<!-- src&#45;&gt;application -->
<g id="edge2" class="edge">
<title>src&#45;&gt;application</title>
<path fill="none" stroke="#555555" d="M70.23,-379.21C85.42,-375.85 104.94,-371.54 122.41,-367.68"/>
<polygon fill="#555555" stroke="#555555" points="123.04,-371.13 132.05,-365.55 121.53,-364.29 123.04,-371.13"/>
</g>
<!-- infrastructure -->
<g id="node4" class="node">
<title>infrastructure</title>
<polygon fill="#f8f9fb" stroke="black" points="205.62,-457 202.62,-461 181.62,-461 178.62,-457 128.88,-457 128.88,-421 205.62,-421 205.62,-457"/>
<text xml:space="preserve" text-anchor="middle" x="167.25" y="-435.5" font-family="Helvetica,sans-Serif" font-size="10.00">Infrastructure/</text>
</g>
<!-- src&#45;&gt;infrastructure -->
<g id="edge3" class="edge">
<title>src&#45;&gt;infrastructure</title>
<path fill="none" stroke="#555555" d="M70.23,-396.58C84.15,-402.74 101.72,-410.49 118,-417.69"/>
<polygon fill="#555555" stroke="#555555" points="116.52,-420.86 127.08,-421.7 119.35,-414.46 116.52,-420.86"/>
</g>
<!-- interface -->
<g id="node5" class="node">
<title>interface</title>
<polygon fill="#f8f9fb" stroke="black" points="195.88,-592 192.88,-596 171.88,-596 168.88,-592 138.62,-592 138.62,-556 195.88,-556 195.88,-592"/>
<text xml:space="preserve" text-anchor="middle" x="167.25" y="-570.5" font-family="Helvetica,sans-Serif" font-size="10.00">Interface/</text>
</g>
<!-- src&#45;&gt;interface -->
<g id="edge4" class="edge">
<title>src&#45;&gt;interface</title>
<path fill="none" stroke="#555555" d="M55.94,-403.47C77.5,-436.79 123.01,-507.15 148.32,-546.27"/>
<polygon fill="#555555" stroke="#555555" points="145.25,-547.97 153.62,-554.47 151.12,-544.17 145.25,-547.97"/>
</g>
<!-- cr -->
<g id="node6" class="node">
<title>cr</title>
<polygon fill="#f8f9fb" stroke="black" points="365.25,-52 362.25,-56 341.25,-56 338.25,-52 264.5,-52 264.5,-16 365.25,-16 365.25,-52"/>
<text xml:space="preserve" text-anchor="middle" x="314.88" y="-30.5" font-family="Helvetica,sans-Serif" font-size="10.00">ContentRepository/</text>
</g>
<!-- domain&#45;&gt;cr -->
<g id="edge5" class="edge">
<title>domain&#45;&gt;cr</title>
<path fill="none" stroke="#555555" d="M181.32,-150.83C198.49,-127.85 230.49,-88.04 264.5,-61 265.46,-60.24 266.44,-59.49 267.44,-58.75"/>
<polygon fill="#555555" stroke="#555555" points="269.25,-61.75 275.59,-53.25 265.34,-55.94 269.25,-61.75"/>
</g>
<!-- media -->
<g id="node7" class="node">
<title>media</title>
<polygon fill="#f8f9fb" stroke="black" points="341.88,-106 338.88,-110 317.88,-110 314.88,-106 287.88,-106 287.88,-70 341.88,-70 341.88,-106"/>
<text xml:space="preserve" text-anchor="middle" x="314.88" y="-84.5" font-family="Helvetica,sans-Serif" font-size="10.00">Media/</text>
</g>
<!-- domain&#45;&gt;media -->
<g id="edge6" class="edge">
<title>domain&#45;&gt;media</title>
<path fill="none" stroke="#555555" d="M194.35,-154.25C213.69,-143.36 240.7,-128.18 264.5,-115 268.68,-112.68 273.07,-110.27 277.43,-107.87"/>
<polygon fill="#555555" stroke="#555555" points="279.04,-110.98 286.13,-103.11 275.67,-104.84 279.04,-110.98"/>
</g>
<!-- workflow -->
<g id="node8" class="node">
<title>workflow</title>
<polygon fill="#f8f9fb" stroke="black" points="344.62,-160 341.62,-164 320.62,-164 317.62,-160 285.12,-160 285.12,-124 344.62,-124 344.62,-160"/>
<text xml:space="preserve" text-anchor="middle" x="314.88" y="-138.5" font-family="Helvetica,sans-Serif" font-size="10.00">Workflow/</text>
</g>
<!-- domain&#45;&gt;workflow -->
<g id="edge7" class="edge">
<title>domain&#45;&gt;workflow</title>
<path fill="none" stroke="#555555" d="M194.62,-164.11C216.66,-160.03 248.43,-154.13 273.64,-149.46"/>
<polygon fill="#555555" stroke="#555555" points="274.02,-152.95 283.21,-147.69 272.74,-146.07 274.02,-152.95"/>
</g>
<!-- publishing -->
<g id="node9" class="node">
<title>publishing</title>
<polygon fill="#f8f9fb" stroke="black" points="346.88,-214 343.88,-218 322.88,-218 319.88,-214 282.88,-214 282.88,-178 346.88,-178 346.88,-214"/>
<text xml:space="preserve" text-anchor="middle" x="314.88" y="-192.5" font-family="Helvetica,sans-Serif" font-size="10.00">Publishing/</text>
</g>
<!-- domain&#45;&gt;publishing -->
<g id="edge8" class="edge">
<title>domain&#45;&gt;publishing</title>
<path fill="none" stroke="#555555" d="M194.62,-173.89C215.92,-177.84 246.32,-183.47 271.09,-188.07"/>
<polygon fill="#555555" stroke="#555555" points="270.42,-191.5 280.89,-189.88 271.7,-184.62 270.42,-191.5"/>
</g>
<!-- identity -->
<g id="node10" class="node">
<title>identity</title>
<polygon fill="#f8f9fb" stroke="black" points="357,-268 354,-272 333,-272 330,-268 272.75,-268 272.75,-232 357,-232 357,-268"/>
<text xml:space="preserve" text-anchor="middle" x="314.88" y="-246.5" font-family="Helvetica,sans-Serif" font-size="10.00">IdentityAccess/</text>
</g>
<!-- domain&#45;&gt;identity -->
<g id="edge9" class="edge">
<title>domain&#45;&gt;identity</title>
<path fill="none" stroke="#555555" d="M194.35,-183.75C213.69,-194.64 240.7,-209.82 264.5,-223 266.39,-224.05 268.32,-225.12 270.28,-226.19"/>
<polygon fill="#555555" stroke="#555555" points="268.34,-229.12 278.79,-230.87 271.71,-222.99 268.34,-229.12"/>
</g>
<!-- app_cr -->
<g id="node11" class="node">
<title>app_cr</title>
<polygon fill="#f8f9fb" stroke="black" points="365.25,-322 362.25,-326 341.25,-326 338.25,-322 264.5,-322 264.5,-286 365.25,-286 365.25,-322"/>
<text xml:space="preserve" text-anchor="middle" x="314.88" y="-300.5" font-family="Helvetica,sans-Serif" font-size="10.00">ContentRepository/</text>
</g>
<!-- application&#45;&gt;app_cr -->
<g id="edge10" class="edge">
<title>application&#45;&gt;app_cr</title>
<path fill="none" stroke="#555555" d="M200.93,-345.88C216.42,-340.14 235.43,-333.09 253.41,-326.42"/>
<polygon fill="#555555" stroke="#555555" points="254.56,-329.73 262.72,-322.97 252.12,-323.17 254.56,-329.73"/>
</g>
<!-- app_ellipsis -->
<g id="node12" class="node">
<title>app_ellipsis</title>
<polygon fill="#ffffff" stroke="black" points="335.88,-376 287.88,-376 287.88,-340 341.88,-340 341.88,-370 335.88,-376"/>
<polyline fill="none" stroke="black" points="335.88,-376 335.88,-370"/>
<polyline fill="none" stroke="black" points="341.88,-370 335.88,-370"/>
<text xml:space="preserve" text-anchor="middle" x="314.88" y="-354.5" font-family="Helvetica,sans-Serif" font-size="10.00">…</text>
</g>
<!-- application&#45;&gt;app_ellipsis -->
<g id="edge11" class="edge">
<title>application&#45;&gt;app_ellipsis</title>
<path fill="none" stroke="#555555" d="M200.93,-358C223.31,-358 253.05,-358 276.4,-358"/>
<polygon fill="#555555" stroke="#555555" points="276.1,-361.5 286.1,-358 276.1,-354.5 276.1,-361.5"/>
</g>
<!-- persistence -->
<g id="node13" class="node">
<title>persistence</title>
<polygon fill="#f8f9fb" stroke="black" points="350.25,-430 347.25,-434 326.25,-434 323.25,-430 279.5,-430 279.5,-394 350.25,-394 350.25,-430"/>
<text xml:space="preserve" text-anchor="middle" x="314.88" y="-408.5" font-family="Helvetica,sans-Serif" font-size="10.00">Persistence/</text>
</g>
<!-- infrastructure&#45;&gt;persistence -->
<g id="edge12" class="edge">
<title>infrastructure&#45;&gt;persistence</title>
<path fill="none" stroke="#555555" d="M205.75,-432.05C224.86,-428.5 248.25,-424.17 268.38,-420.43"/>
<polygon fill="#555555" stroke="#555555" points="268.81,-423.91 278.01,-418.65 267.53,-417.03 268.81,-423.91"/>
</g>
<!-- messaging -->
<g id="node14" class="node">
<title>messaging</title>
<polygon fill="#f8f9fb" stroke="black" points="348,-484 345,-488 324,-488 321,-484 281.75,-484 281.75,-448 348,-448 348,-484"/>
<text xml:space="preserve" text-anchor="middle" x="314.88" y="-462.5" font-family="Helvetica,sans-Serif" font-size="10.00">Messaging/</text>
</g>
<!-- infrastructure&#45;&gt;messaging -->
<g id="edge13" class="edge">
<title>infrastructure&#45;&gt;messaging</title>
<path fill="none" stroke="#555555" d="M205.75,-445.95C225.43,-449.6 249.64,-454.09 270.16,-457.9"/>
<polygon fill="#555555" stroke="#555555" points="269.49,-461.33 279.96,-459.71 270.76,-454.45 269.49,-461.33"/>
</g>
<!-- files -->
<g id="node15" class="node">
<title>files</title>
<polygon fill="#f8f9fb" stroke="black" points="341.88,-538 338.88,-542 317.88,-542 314.88,-538 287.88,-538 287.88,-502 341.88,-502 341.88,-538"/>
<text xml:space="preserve" text-anchor="middle" x="314.88" y="-516.5" font-family="Helvetica,sans-Serif" font-size="10.00">Files/</text>
</g>
<!-- infrastructure&#45;&gt;files -->
<g id="edge14" class="edge">
<title>infrastructure&#45;&gt;files</title>
<path fill="none" stroke="#555555" d="M200.72,-457.33C219.36,-467.83 243.21,-481.21 264.5,-493 268.68,-495.32 273.07,-497.73 277.43,-500.13"/>
<polygon fill="#555555" stroke="#555555" points="275.67,-503.16 286.13,-504.89 279.04,-497.02 275.67,-503.16"/>
</g>
<!-- http -->
<g id="node16" class="node">
<title>http</title>
<polygon fill="#f8f9fb" stroke="black" points="341.88,-592 338.88,-596 317.88,-596 314.88,-592 287.88,-592 287.88,-556 341.88,-556 341.88,-592"/>
<text xml:space="preserve" text-anchor="middle" x="314.88" y="-570.5" font-family="Helvetica,sans-Serif" font-size="10.00">Http/</text>
</g>
<!-- interface&#45;&gt;http -->
<g id="edge15" class="edge">
<title>interface&#45;&gt;http</title>
<path fill="none" stroke="#555555" d="M196.33,-574C219.16,-574 251.57,-574 276.58,-574"/>
<polygon fill="#555555" stroke="#555555" points="276.33,-577.5 286.33,-574 276.33,-570.5 276.33,-577.5"/>
</g>
<!-- cli -->
<g id="node17" class="node">
<title>cli</title>
<polygon fill="#f8f9fb" stroke="black" points="341.88,-646 338.88,-650 317.88,-650 314.88,-646 287.88,-646 287.88,-610 341.88,-610 341.88,-646"/>
<text xml:space="preserve" text-anchor="middle" x="314.88" y="-624.5" font-family="Helvetica,sans-Serif" font-size="10.00">Cli/</text>
</g>
<!-- interface&#45;&gt;cli -->
<g id="edge16" class="edge">
<title>interface&#45;&gt;cli</title>
<path fill="none" stroke="#555555" d="M196.33,-584.41C219.37,-592.95 252.16,-605.12 277.26,-614.42"/>
<polygon fill="#555555" stroke="#555555" points="275.83,-617.62 286.42,-617.82 278.26,-611.06 275.83,-617.62"/>
</g>
<!-- bundles -->
<g id="node18" class="node">
<title>bundles</title>
<polygon fill="#fff7e6" stroke="black" points="70,-836 67,-840 46,-840 43,-836 16,-836 16,-800 70,-800 70,-836"/>
<text xml:space="preserve" text-anchor="middle" x="43" y="-814.5" font-family="Helvetica,sans-Serif" font-size="10.00">bundles/</text>
</g>
<!-- aurora_content -->
<g id="node19" class="node">
<title>aurora_content</title>
<polygon fill="#f8f9fb" stroke="black" points="223.25,-728 220.25,-732 199.25,-732 196.25,-728 111.25,-728 111.25,-692 223.25,-692 223.25,-728"/>
<text xml:space="preserve" text-anchor="middle" x="167.25" y="-706.5" font-family="Helvetica,sans-Serif" font-size="10.00">AuroraContentBundle/</text>
</g>
<!-- bundles&#45;&gt;aurora_content -->
<g id="edge17" class="edge">
<title>bundles&#45;&gt;aurora_content</title>
<path fill="none" stroke="#555555" d="M54.24,-799.79C65.12,-781.83 83.78,-754.58 106,-737 107.11,-736.12 108.26,-735.26 109.43,-734.43"/>
<polygon fill="#555555" stroke="#555555" points="111.02,-737.56 117.59,-729.25 107.27,-731.65 111.02,-737.56"/>
</g>
<!-- aurora_media -->
<g id="node20" class="node">
<title>aurora_media</title>
<polygon fill="#f8f9fb" stroke="black" points="219.12,-782 216.12,-786 195.12,-786 192.12,-782 115.38,-782 115.38,-746 219.12,-746 219.12,-782"/>
<text xml:space="preserve" text-anchor="middle" x="167.25" y="-760.5" font-family="Helvetica,sans-Serif" font-size="10.00">AuroraMediaBundle/</text>
</g>
<!-- bundles&#45;&gt;aurora_media -->
<g id="edge18" class="edge">
<title>bundles&#45;&gt;aurora_media</title>
<path fill="none" stroke="#555555" d="M70.23,-806.42C83.11,-800.73 99.1,-793.66 114.32,-786.94"/>
<polygon fill="#555555" stroke="#555555" points="115.56,-790.22 123.29,-782.97 112.73,-783.81 115.56,-790.22"/>
</g>
<!-- aurora_workflow -->
<g id="node21" class="node">
<title>aurora_workflow</title>
<polygon fill="#f8f9fb" stroke="black" points="226.25,-836 223.25,-840 202.25,-840 199.25,-836 108.25,-836 108.25,-800 226.25,-800 226.25,-836"/>
<text xml:space="preserve" text-anchor="middle" x="167.25" y="-814.5" font-family="Helvetica,sans-Serif" font-size="10.00">AuroraWorkflowBundle/</text>
</g>
<!-- bundles&#45;&gt;aurora_workflow -->
<g id="edge19" class="edge">
<title>bundles&#45;&gt;aurora_workflow</title>
<path fill="none" stroke="#555555" d="M70.23,-818C78.11,-818 87.15,-818 96.47,-818"/>
<polygon fill="#555555" stroke="#555555" points="96.4,-821.5 106.4,-818 96.4,-814.5 96.4,-821.5"/>
</g>
<!-- aurora_publishing -->
<g id="node22" class="node">
<title>aurora_publishing</title>
<polygon fill="#f8f9fb" stroke="black" points="228.5,-890 225.5,-894 204.5,-894 201.5,-890 106,-890 106,-854 228.5,-854 228.5,-890"/>
<text xml:space="preserve" text-anchor="middle" x="167.25" y="-868.5" font-family="Helvetica,sans-Serif" font-size="10.00">AuroraPublishingBundle/</text>
</g>
<!-- bundles&#45;&gt;aurora_publishing -->
<g id="edge20" class="edge">
<title>bundles&#45;&gt;aurora_publishing</title>
<path fill="none" stroke="#555555" d="M70.23,-829.58C83.11,-835.27 99.1,-842.34 114.32,-849.06"/>
<polygon fill="#555555" stroke="#555555" points="112.73,-852.19 123.29,-853.03 115.56,-845.78 112.73,-852.19"/>
</g>
<!-- aurora_identity -->
<g id="node23" class="node">
<title>aurora_identity</title>
<polygon fill="#f8f9fb" stroke="black" points="222.12,-944 219.12,-948 198.12,-948 195.12,-944 112.38,-944 112.38,-908 222.12,-908 222.12,-944"/>
<text xml:space="preserve" text-anchor="middle" x="167.25" y="-922.5" font-family="Helvetica,sans-Serif" font-size="10.00">AuroraIdentityBundle/</text>
</g>
<!-- bundles&#45;&gt;aurora_identity -->
<g id="edge21" class="edge">
<title>bundles&#45;&gt;aurora_identity</title>
<path fill="none" stroke="#555555" d="M54.24,-836.21C65.12,-854.17 83.78,-881.42 106,-899 107.11,-899.88 108.26,-900.74 109.43,-901.57"/>
<polygon fill="#555555" stroke="#555555" points="107.27,-904.35 117.59,-906.75 111.02,-898.44 107.27,-904.35"/>
</g>
</g>
</svg>
