<?xml version="1.0" encoding="UTF-8" standalone="no"?>
<!DOCTYPE svg PUBLIC "-//W3C//DTD SVG 1.1//EN"
 "http://www.w3.org/Graphics/SVG/1.1/DTD/svg11.dtd">
<!-- Generated by graphviz version 13.1.2 (20250808.2320)
 -->
<!-- Title: Aurora System Context Pages: 1 -->
<svg width="771pt" height="134pt"
 viewBox="0.00 0.00 771.00 134.00" xmlns="http://www.w3.org/2000/svg" xmlns:xlink="http://www.w3.org/1999/xlink">
<g id="graph0" class="graph" transform="scale(1 1) rotate(0) translate(4 130)">
<title>Aurora System Context</title>
<polygon fill="white" stroke="none" points="-4,4 -4,-130 767.2,-130 767.2,4 -4,4"/>
<text xml:space="preserve" text-anchor="middle" x="381.6" y="-110.6" font-family="Helvetica,sans-Serif" font-size="12.00">Aurora Core — System Context</text>
<!-- User -->
<g id="node1" class="node">
<title>User</title>
<ellipse fill="#e8f0fe" stroke="black" cx="53.46" cy="-85.75" rx="53.46" ry="18"/>
<text xml:space="preserve" text-anchor="middle" x="53.46" y="-82.05" font-family="Helvetica,sans-Serif" font-size="11.00">Author / Editor</text>
</g>
<!-- UI -->
<g id="node2" class="node">
<title>UI</title>
<path fill="#f8f9fb" stroke="black" d="M250.68,-103.75C250.68,-103.75 213.68,-103.75 213.68,-103.75 207.68,-103.75 201.68,-97.75 201.68,-91.75 201.68,-91.75 201.68,-79.75 201.68,-79.75 201.68,-73.75 207.68,-67.75 213.68,-67.75 213.68,-67.75 250.68,-67.75 250.68,-67.75 256.68,-67.75 262.68,-73.75 262.68,-79.75 262.68,-79.75 262.68,-91.75 262.68,-91.75 262.68,-97.75 256.68,-103.75 250.68,-103.75"/>
<text xml:space="preserve" text-anchor="middle" x="232.18" y="-82.05" font-family="Helvetica,sans-Serif" font-size="11.00">Admin UI</text>
</g>
<!-- User&#45;&gt;UI -->
<g id="edge1" class="edge">
<title>User&#45;&gt;UI</title>
<path fill="none" stroke="#555555" d="M107,-85.75C133.61,-85.75 165.45,-85.75 190.22,-85.75"/>
<polygon fill="#555555" stroke="#555555" points="189.9,-89.25 199.9,-85.75 189.9,-82.25 189.9,-89.25"/>
</g>
<!-- API -->
<g id="node3" class="node">
<title>API</title>
<polygon fill="#f8f9fb" stroke="black" points="426.7,-72.75 357.45,-72.75 357.45,-68.75 353.45,-68.75 353.45,-64.75 357.45,-64.75 357.45,-44.75 353.45,-44.75 353.45,-40.75 357.45,-40.75 357.45,-36.75 426.7,-36.75 426.7,-72.75"/>
<polyline fill="none" stroke="black" points="357.45,-68.75 361.45,-68.75 361.45,-64.75 357.45,-64.75"/>
<polyline fill="none" stroke="black" points="357.45,-44.75 361.45,-44.75 361.45,-40.75 357.45,-40.75"/>
<text xml:space="preserve" text-anchor="middle" x="392.08" y="-51.05" font-family="Helvetica,sans-Serif" font-size="11.00">Aurora API</text>
</g>
<!-- UI&#45;&gt;API -->
<g id="edge2" class="edge">
<title>UI&#45;&gt;API</title>
<path fill="none" stroke="#555555" d="M262.88,-79.92C286.33,-75.31 319.43,-68.81 346.13,-63.57"/>
<polygon fill="#555555" stroke="#555555" points="346.5,-67.07 355.64,-61.71 345.16,-60.2 346.5,-67.07"/>
</g>
<!-- APP -->
<g id="node4" class="node">
<title>APP</title>
<path fill="#f8f9fb" stroke="black" d="M563.45,-72.75C563.45,-72.75 474.7,-72.75 474.7,-72.75 468.7,-72.75 462.7,-66.75 462.7,-60.75 462.7,-60.75 462.7,-48.75 462.7,-48.75 462.7,-42.75 468.7,-36.75 474.7,-36.75 474.7,-36.75 563.45,-36.75 563.45,-36.75 569.45,-36.75 575.45,-42.75 575.45,-48.75 575.45,-48.75 575.45,-60.75 575.45,-60.75 575.45,-66.75 569.45,-72.75 563.45,-72.75"/>
<text xml:space="preserve" text-anchor="middle" x="519.08" y="-51.05" font-family="Helvetica,sans-Serif" font-size="11.00">Application Services</text>
</g>
<!-- API&#45;&gt;APP -->
<g id="edge3" class="edge">
<title>API&#45;&gt;APP</title>
<path fill="none" stroke="#555555" d="M426.91,-54.75C434.46,-54.75 442.73,-54.75 451.11,-54.75"/>
<polygon fill="#555555" stroke="#555555" points="451.03,-58.25 461.03,-54.75 451.03,-51.25 451.03,-58.25"/>
</g>
<!-- DOM -->
<g id="node5" class="node">
<title>DOM</title>
<polygon fill="#f8f9fb" stroke="black" points="714.33,-99.75 711.33,-103.75 690.33,-103.75 687.33,-99.75 660.33,-99.75 660.33,-63.75 714.33,-63.75 714.33,-99.75"/>
<text xml:space="preserve" text-anchor="middle" x="687.33" y="-78.05" font-family="Helvetica,sans-Serif" font-size="11.00">Domain</text>
</g>
<!-- APP&#45;&gt;DOM -->
<g id="edge4" class="edge">
<title>APP&#45;&gt;DOM</title>
<path fill="none" stroke="#555555" d="M575.9,-63.81C599.94,-67.72 627.4,-72.18 648.93,-75.67"/>
<polygon fill="#555555" stroke="#555555" points="648.29,-79.12 658.72,-77.26 649.41,-72.21 648.29,-79.12"/>
</g>
<!-- INFRA -->
<g id="node6" class="node">
<title>INFRA</title>
<polygon fill="#f8f9fb" stroke="black" points="763.2,-45.75 615.45,-45.75 611.45,-41.75 611.45,-9.75 759.2,-9.75 763.2,-13.75 763.2,-45.75"/>
<polyline fill="none" stroke="black" points="759.2,-41.75 611.45,-41.75"/>
<polyline fill="none" stroke="black" points="759.2,-41.75 759.2,-9.75"/>
<polyline fill="none" stroke="black" points="759.2,-41.75 763.2,-45.75"/>
<text xml:space="preserve" text-anchor="middle" x="687.33" y="-30.8" font-family="Helvetica,sans-Serif" font-size="11.00">Infrastructure</text>
<text xml:space="preserve" text-anchor="middle" x="687.33" y="-17.3" font-family="Helvetica,sans-Serif" font-size="11.00">(DB, Search, Files, Queues)</text>
</g>
<!-- APP&#45;&gt;INFRA -->
<g id="edge5" class="edge">
<title>APP&#45;&gt;INFRA</title>
<path fill="none" stroke="#555555" d="M575.9,-45.68C583.68,-44.42 591.82,-43.1 600.01,-41.77"/>
<polygon fill="#555555" stroke="#555555" points="600.36,-45.26 609.67,-40.2 599.24,-38.35 600.36,-45.26"/>
</g>
<!-- Ext -->
<g id="node7" class="node">
<title>Ext</title>
<ellipse fill="#ffe8e8" stroke="black" cx="232.18" cy="-24.75" rx="89.27" ry="24.75"/>
<text xml:space="preserve" text-anchor="middle" x="232.18" y="-27.8" font-family="Helvetica,sans-Serif" font-size="11.00">External Systems</text>
<text xml:space="preserve" text-anchor="middle" x="232.18" y="-14.3" font-family="Helvetica,sans-Serif" font-size="11.00">(IdP, CDN, Webhooks)</text>
</g>
<!-- Ext&#45;&gt;API -->
<g id="edge6" class="edge">
<title>Ext&#45;&gt;API</title>
<path fill="none" stroke="#555555" d="M306.58,-38.69C320.15,-41.27 333.93,-43.89 346.33,-46.25"/>
<polygon fill="#555555" stroke="#555555" points="345.3,-49.61 355.78,-48.04 346.61,-42.74 345.3,-49.61"/>
</g>
</g>
</svg>
